<svg width="18" height="14" viewBox="0 0 18 14" fill="none" xmlns="http://www.w3.org/2000/svg">
<path d="M0.596497 6.2846C0.409026 6.47213 0.303711 6.72644 0.303711 6.9916C0.303711 7.25676 0.409026 7.51107 0.596497 7.6986L6.2535 13.3556C6.34574 13.4511 6.45609 13.5273 6.57809 13.5797C6.7001 13.6321 6.83132 13.6597 6.9641 13.6609C7.09688 13.662 7.22856 13.6367 7.35145 13.5864C7.47435 13.5361 7.586 13.4619 7.67989 13.368C7.77378 13.2741 7.84804 13.1625 7.89832 13.0396C7.9486 12.9167 7.9739 12.785 7.97275 12.6522C7.97159 12.5194 7.94401 12.3882 7.8916 12.2662C7.83919 12.1442 7.76301 12.0338 7.6675 11.9416L3.7175 7.9916L16.9605 7.9916C17.2257 7.9916 17.4801 7.88624 17.6676 7.69871C17.8551 7.51117 17.9605 7.25682 17.9605 6.9916C17.9605 6.72638 17.8551 6.47203 17.6676 6.28449C17.4801 6.09696 17.2257 5.9916 16.9605 5.9916L3.7175 5.9916L7.6675 2.0416C7.84965 1.853 7.95045 1.6004 7.94817 1.3382C7.94589 1.076 7.84072 0.825189 7.65532 0.639782C7.46991 0.454374 7.21909 0.349204 6.9569 0.346925C6.6947 0.344647 6.4421 0.445441 6.2535 0.627599L0.596497 6.2846Z" fill="#F8F8F8"/>
</svg>
