<svg width="241" height="158" viewBox="0 0 241 158" fill="none" xmlns="http://www.w3.org/2000/svg">
<path d="M120.259 157.728C184.491 157.728 236.561 147.314 236.561 134.468C236.561 121.622 184.491 111.208 120.259 111.208C56.0279 111.208 3.95801 121.622 3.95801 134.468C3.95801 147.314 56.0279 157.728 120.259 157.728Z" fill="#9747FF"/>
<path d="M120.484 129.159C156.09 129.159 184.955 100.294 184.955 64.6873C184.955 29.0807 156.09 0.21582 120.484 0.21582C84.8773 0.21582 56.0125 29.0807 56.0125 64.6873C56.0125 100.294 84.8773 129.159 120.484 129.159Z" fill="url(#paint0_linear_14_152)"/>
<path d="M185.41 67.8242C185.205 67.8343 185.002 67.8607 184.801 67.9032C184.682 70.3834 184.419 72.8546 184.015 75.3046C184.137 75.363 184.262 75.415 184.389 75.4603C186.905 75.7967 189.413 76.1597 191.914 76.5578C192.414 76.6374 192.924 76.6178 193.416 76.5001C193.908 76.3824 194.372 76.169 194.782 75.8719C195.191 75.5749 195.538 75.2001 195.803 74.769C196.067 74.3379 196.245 73.8588 196.324 73.3592C196.484 72.3508 196.237 71.3201 195.637 70.4938C195.037 69.6674 194.134 69.1131 193.125 68.9526C190.555 68.5435 187.984 68.1683 185.41 67.8242ZM38.354 70.5421C35.7921 71.0415 33.2305 71.5854 30.6751 72.188C29.6809 72.4222 28.8204 73.0417 28.2829 73.9102C27.7454 74.7788 27.575 75.8253 27.8091 76.8196C27.925 77.3121 28.1368 77.777 28.4325 78.1876C28.7281 78.5982 29.1018 78.9466 29.5321 79.2127C29.9625 79.4789 30.441 79.6576 30.9405 79.7388C31.4399 79.8199 31.9504 79.8019 32.4429 79.6856C34.8858 79.1095 37.3485 78.5875 39.8269 78.1044C40.8293 77.9087 41.7129 77.3228 42.2833 76.4757C42.8538 75.6286 43.0645 74.5896 42.869 73.5872C42.6739 72.5847 42.0887 71.7008 41.242 71.1298C40.3954 70.5587 39.3565 70.3474 38.354 70.5421ZM214.171 73.7888C213.516 73.9552 212.916 74.2911 212.432 74.7628C211.948 75.2344 211.596 75.8252 211.413 76.4758C211.275 76.9629 211.235 77.4722 211.295 77.9748C211.354 78.4773 211.512 78.9632 211.76 79.4047C212.007 79.8461 212.339 80.2345 212.737 80.5476C213.134 80.8606 213.59 81.0923 214.077 81.2292C216.478 81.9055 218.834 82.642 221.128 83.4837C222.087 83.8353 223.146 83.7918 224.072 83.3626C224.999 82.9335 225.717 82.154 226.069 81.1954C226.421 80.2365 226.377 79.1773 225.948 78.2507C225.519 77.324 224.739 76.6058 223.78 76.2539C221.252 75.3262 218.706 74.5304 216.164 73.8144C215.513 73.6312 214.826 73.6223 214.171 73.7888ZM9.7958 79.7962C9.11952 79.8077 8.45818 79.9971 7.87833 80.3453C6.71366 81.0443 5.53843 81.8458 4.41875 82.8127C4.41498 82.8167 4.41122 82.8207 4.40747 82.8247C3.14675 83.9231 1.77251 85.3513 0.881696 87.3706C0.469689 88.3052 0.445789 89.3652 0.815252 90.3174C1.18471 91.2696 1.91728 92.0361 2.85183 92.4482C3.78605 92.8604 4.84573 92.8848 5.7979 92.5159C6.75007 92.147 7.51678 91.4151 7.92948 90.4811C8.14782 89.9862 8.66857 89.3307 9.45353 88.6441L9.45955 88.6411C10.1527 88.0431 10.9554 87.4821 11.8419 86.9501C12.2759 86.6899 12.6543 86.3469 12.9557 85.9405C13.257 85.534 13.4753 85.0722 13.5981 84.5814C13.7209 84.0906 13.7458 83.5804 13.6714 83.0799C13.597 82.5795 13.4247 82.0986 13.1644 81.6648C12.8163 81.085 12.3218 80.6071 11.7305 80.2791C11.1392 79.9511 10.4719 79.7846 9.7958 79.7962ZM236.546 87.1291C236.04 87.1313 235.539 87.233 235.073 87.4287C234.606 87.6243 234.183 87.9099 233.827 88.2691C233.471 88.6284 233.189 89.0543 232.998 89.5225C232.806 89.9907 232.709 90.492 232.711 90.9979C232.711 91.1258 232.642 91.4415 232.427 91.7945C232.427 91.7955 232.427 91.7965 232.427 91.7975C232.062 92.3979 231.407 93.0705 230.527 93.7586L230.243 93.9753L230.174 94.0234C229.764 94.3194 229.416 94.6934 229.15 95.124C228.884 95.5545 228.706 96.0333 228.625 96.5329C228.544 97.0324 228.562 97.543 228.679 98.0355C228.796 98.5279 229.008 98.9925 229.305 99.4027C229.902 100.231 230.805 100.788 231.813 100.951C232.821 101.114 233.853 100.87 234.681 100.272L234.786 100.196C234.811 100.178 234.836 100.16 234.86 100.142L235.227 99.8631C235.242 99.8519 235.257 99.8406 235.272 99.8293C236.555 98.8263 237.934 97.5602 239.005 95.8002L239.008 95.7972C239.822 94.4601 240.42 92.8312 240.412 90.9671C240.411 90.4611 240.309 89.9605 240.114 89.4938C239.919 89.0271 239.633 88.6035 239.274 88.247C238.915 87.8906 238.489 87.6085 238.021 87.4166C237.553 87.2248 237.052 87.1271 236.546 87.1291ZM19.3087 99.0221C18.6457 99.1549 18.0293 99.46 17.5216 99.9066C17.0139 100.353 16.6327 100.926 16.4163 101.566C16.0894 102.534 16.16 103.591 16.6127 104.507C17.0653 105.422 17.863 106.12 18.8303 106.448C21.3618 107.303 23.9112 108.049 26.461 108.722C26.9501 108.852 27.4599 108.883 27.9612 108.816C28.4626 108.748 28.9457 108.582 29.3829 108.327C29.8201 108.073 30.2029 107.735 30.5094 107.332C30.816 106.93 31.0402 106.471 31.1693 105.982C31.4298 104.994 31.2874 103.944 30.7735 103.061C30.2596 102.179 29.4163 101.537 28.4289 101.276C26.0139 100.638 23.6319 99.938 21.2984 99.1492C20.6578 98.9329 19.9716 98.8891 19.3087 99.0221ZM210.088 101.791C207.658 102.397 205.206 102.945 202.735 103.451C201.735 103.657 200.857 104.251 200.295 105.103C199.732 105.956 199.531 106.997 199.736 107.997C199.941 108.998 200.535 109.876 201.388 110.438C202.24 111.001 203.281 111.202 204.282 110.997C206.842 110.472 209.4 109.899 211.953 109.262C212.444 109.14 212.905 108.922 213.312 108.622C213.719 108.321 214.062 107.943 214.323 107.51C214.584 107.076 214.756 106.595 214.831 106.095C214.906 105.595 214.882 105.085 214.759 104.594C214.637 104.103 214.419 103.641 214.117 103.235C213.816 102.828 213.438 102.485 213.004 102.225C212.57 101.965 212.09 101.792 211.589 101.718C211.089 101.643 210.579 101.668 210.088 101.791ZM50.6706 105.725C49.6609 105.573 48.6319 105.827 47.8097 106.433C46.9876 107.038 46.4397 107.946 46.2865 108.955C46.1336 109.965 46.3877 110.993 46.9928 111.815C47.5979 112.637 48.5045 113.186 49.5136 113.34C52.0857 113.73 54.6617 114.088 57.2354 114.417C58.2483 114.546 59.2711 114.267 60.0788 113.643C60.8866 113.018 61.4131 112.098 61.5427 111.085C61.6071 110.583 61.5719 110.074 61.4393 109.585C61.3066 109.097 61.0791 108.64 60.7696 108.239C60.4601 107.839 60.0748 107.504 59.6357 107.252C59.1965 107.001 58.7122 106.839 58.2103 106.775C55.6901 106.453 53.1755 106.106 50.6706 105.725ZM180.227 107.037C177.705 107.344 175.177 107.626 172.646 107.884C171.63 107.987 170.697 108.491 170.052 109.282C169.407 110.074 169.103 111.09 169.206 112.106C169.31 113.122 169.813 114.055 170.605 114.7C171.397 115.345 172.413 115.65 173.429 115.546C176.007 115.283 178.583 114.996 181.159 114.682C181.661 114.62 182.146 114.461 182.587 114.212C183.027 113.964 183.415 113.631 183.727 113.232C184.038 112.834 184.269 112.378 184.404 111.89C184.54 111.403 184.578 110.894 184.517 110.392C184.393 109.378 183.871 108.455 183.066 107.826C182.262 107.197 181.241 106.913 180.227 107.037ZM80.9951 109.021C79.9764 108.947 78.9702 109.281 78.1977 109.949C77.4252 110.617 76.9497 111.565 76.8758 112.584C76.8021 113.602 77.136 114.608 77.8041 115.381C78.4722 116.153 79.4198 116.629 80.4384 116.703C83.0214 116.891 85.6042 117.056 88.1858 117.203C89.2052 117.261 90.2058 116.911 90.9676 116.232C91.7295 115.552 92.1902 114.597 92.2486 113.578C92.307 112.558 91.9578 111.557 91.278 110.795C90.5982 110.032 89.6434 109.571 88.6236 109.513C86.0781 109.368 83.5338 109.205 80.9951 109.021ZM149.793 109.626C147.25 109.762 144.703 109.878 142.154 109.976C141.134 110.016 140.171 110.459 139.477 111.209C138.783 111.959 138.416 112.953 138.455 113.974C138.495 114.994 138.938 115.957 139.688 116.651C140.438 117.344 141.432 117.712 142.453 117.673C145.035 117.573 147.618 117.457 150.203 117.32C150.708 117.293 151.203 117.167 151.66 116.949C152.116 116.73 152.525 116.424 152.863 116.048C153.201 115.672 153.462 115.233 153.631 114.756C153.799 114.279 153.872 113.773 153.845 113.268C153.818 112.763 153.692 112.268 153.474 111.812C153.255 111.355 152.95 110.946 152.573 110.608C152.197 110.27 151.758 110.009 151.281 109.841C150.804 109.672 150.298 109.599 149.793 109.626ZM111.554 110.326C110.533 110.311 109.548 110.703 108.815 111.414C108.083 112.125 107.663 113.098 107.647 114.119C107.632 115.14 108.023 116.126 108.734 116.859C109.445 117.592 110.419 118.012 111.44 118.028C114.024 118.066 116.607 118.087 119.193 118.091C120.214 118.093 121.194 117.689 121.918 116.968C122.641 116.247 123.049 115.268 123.051 114.247C123.052 113.741 122.953 113.24 122.76 112.772C122.567 112.304 122.284 111.879 121.927 111.521C121.57 111.163 121.146 110.878 120.678 110.684C120.211 110.49 119.711 110.389 119.205 110.389C116.655 110.384 114.104 110.364 111.554 110.326Z" fill="#9747FF"/>
<defs>
<linearGradient id="paint0_linear_14_152" x1="56.0125" y1="0.21582" x2="196.827" y2="14.8393" gradientUnits="userSpaceOnUse">
<stop stop-color="#080835"/>
<stop offset="1" stop-color="#150E28"/>
</linearGradient>
</defs>
</svg>
